<?xml version="1.0" standalone="no"?>
<svg xmlns="http://www.w3.org/2000/svg" viewBox="0 0 150.69760000000002 55.120000000000005" width="150.69760000000002" height="55.120000000000005"><rect fill="none" stroke="#000000" stroke-width="4" width="146.69760000000002" height="51.120000000000005" x="2" y="2"></rect><g fill="#000000" color="#000000" transform="translate(123.761 12) scale(0.6224001)"><svg width="24.0" height="50.0" x="0.0" y="0.0" viewBox="0 0 24 50"><path fill="currentColor" fill-rule="nonzero" d="M6.12 23.8l6.06-6.22 6.06 6.23 5.36-5.5-6.06-6.23 6.06-6.22-5.36-5.5-6.06 6.23L6.12.36.77 5.86l6.06 6.22-6.06 6.23 5.35 5.49zm0-21.5l6.06 6.23 6.06-6.23 3.46 3.56-6.06 6.22 6.06 6.23-3.46 3.56-6.06-6.23-6.06 6.22-3.46-3.56 6.06-6.23-6.06-6.22L6.12 2.3zM23.6 31.61l-6.06 6.21 6.06 6.23-5.36 5.5-6.06-6.23-6.06 6.23-5.35-5.5 6.06-6.22-6.06-6.22 5.35-5.5 6.06 6.23 6.06-6.23 5.36 5.5zM8.73 37.84l-6.06 6.22 3.46 3.56 6.06-6.22 6.06 6.22 3.46-3.56-6.06-6.22 6.06-6.22-3.46-3.56-6.06 6.23-6.06-6.23-3.46 3.56 6.06 6.22z"></path></svg></g><path fill="#000000" fill-rule="nonzero" d="M9.20 31.12Q4.12 31.12 2.06 26.74Q0 22.36 0 15.40L0 15.40Q0 8.00 2.20 4Q4.40 0 9.28 0L9.28 0Q18.60 0 18.60 15.24L18.60 15.24Q18.60 22.08 16.50 26.60Q14.40 31.12 9.20 31.12L9.20 31.12ZM9.28 26.40Q11.40 26.40 12.08 23.62Q12.76 20.84 12.76 15.20L12.76 15.20Q12.76 10.68 12.10 7.70Q11.44 4.72 9.28 4.72L9.28 4.72Q7.12 4.72 6.48 7.68Q5.84 10.64 5.84 15.16L5.84 15.16Q5.84 20.84 6.50 23.62Q7.16 26.40 9.28 26.40L9.28 26.40ZM36.56 31.08L31.20 17.40L28.92 17.40L28.92 30.32L23.08 30.80L23.08 0.80L30.20 0.56Q35.36 0.56 38.28 2.62Q41.20 4.68 41.20 8.92L41.20 8.92Q41.20 11.72 40.10 13.52Q39 15.32 36.92 16.52L36.92 16.52L39.60 23.04L42.32 29.52L36.56 31.08ZM28.92 13.08L30.92 13.08Q33 13.08 34.18 12.22Q35.36 11.36 35.36 8.96L35.36 8.96Q35.36 5.24 31.68 5.24L31.68 5.24L28.92 5.24L28.92 13.08ZM51.56 30.32L45.68 30.80L45.68 1.04L51.56 0.56L51.56 30.32ZM64.52 31.12Q60.08 31.12 58.02 26.68Q55.96 22.24 55.96 15.44L55.96 15.44Q55.96 11.64 56.94 8.12Q57.92 4.60 60.10 2.30Q62.28 0 65.68 0L65.68 0Q68.60 0 70.54 1.42Q72.48 2.84 73.42 5.18Q74.36 7.52 74.36 10.36L74.36 10.36L68.80 10.72L68.68 9.88Q68.44 7.52 67.84 6.12Q67.24 4.72 65.60 4.72L65.60 4.72Q63.52 4.72 62.66 8.06Q61.80 11.40 61.80 15.76L61.80 15.76Q61.80 18.84 62 21Q62.20 23.16 63.04 24.78Q63.88 26.40 65.64 26.40L65.64 26.40Q67.12 26.40 67.98 24.56Q68.84 22.72 68.84 20.04L68.84 20.04L65.88 20.04L66.36 15.56L74.48 15.56L74.48 30.32L72.24 30.56L70.88 25Q70.52 26.56 69.98 27.80Q69.44 29.04 68.12 30.08Q66.80 31.12 64.52 31.12L64.52 31.12ZM87.36 31.12Q82.28 31.12 80.22 26.74Q78.16 22.36 78.16 15.40L78.16 15.40Q78.16 8.00 80.36 4Q82.56 0 87.44 0L87.44 0Q96.76 0 96.76 15.24L96.76 15.24Q96.76 22.08 94.66 26.60Q92.56 31.12 87.36 31.12L87.36 31.12ZM87.44 26.40Q89.56 26.40 90.24 23.62Q90.92 20.84 90.92 15.20L90.92 15.20Q90.92 10.68 90.26 7.70Q89.60 4.72 87.44 4.72L87.44 4.72Q85.28 4.72 84.64 7.68Q84 10.64 84 15.16L84 15.16Q84 20.84 84.66 23.62Q85.32 26.40 87.44 26.40L87.44 26.40Z" transform="translate(12.001 12.001) scale(1)"></path></svg>